<svg clip-rule="evenodd" fill-rule="evenodd" height="512" stroke-linejoin="round" stroke-miterlimit="2" viewBox="0 0 24 24" width="512" xmlns="http://www.w3.org/2000/svg"><g id="Icon"><circle cx="11.5" cy="6.75" r="5.5"/><path d="m12.931 21.762c-1.043-1.116-1.681-2.615-1.681-4.262 0-1.681.665-3.207 1.745-4.331-.487-.037-.987-.057-1.495-.057-3.322 0-6.263.831-8.089 2.076-1.393.95-2.161 2.157-2.161 3.424v1.451c0 .45.179.883.498 1.202.319.318.751.498 1.202.498z"/><path d="m17.5 12.25c-2.898 0-5.25 2.352-5.25 5.25s2.352 5.25 5.25 5.25 5.25-2.352 5.25-5.25-2.352-5.25-5.25-5.25zm.75 4.5v-1c0-.414-.336-.75-.75-.75s-.75.336-.75.75v1h-1c-.414 0-.75.336-.75.75s.336.75.75.75h1v1c0 .414.336.75.75.75s.75-.336.75-.75v-1h1c.414 0 .75-.336.75-.75s-.336-.75-.75-.75z"/></g></svg>