<svg clip-rule="evenodd" fill-rule="evenodd" stroke-linejoin="round" stroke-miterlimit="2" viewBox="0 0 96 96" xmlns="http://www.w3.org/2000/svg" xmlns:serif="http://www.serif.com/"><g><path d="m71.421 16.434h-62.835c-1.657 0-3 1.343-3 3v46.36c0 1.657 1.343 3 3 3h11.835v-21.965c0-1.656 1.343-3 3-3h41.161c1.657 0 3 1.344 3 3v21.965h11.836c1.656 0 3-1.343 3-3v-13.486c-2.484 0-4.5-2.017-4.5-4.5v-4.675h-1.997c-2.484 0-4.5-2.016-4.5-4.5 0-2.483 2.016-4.5 4.5-4.5h6.497v-4.354h-3.01c-2.119 0-4.15-.842-5.648-2.339-1.498-1.498-2.339-3.53-2.339-5.648zm-53.65 16.315h6.055c.828 0 1.5-.672 1.5-1.5s-.672-1.5-1.5-1.5h-6.055c-.828 0-1.5.672-1.5 1.5s.672 1.5 1.5 1.5z"/><path d="m58.401 46.829v31.157c-.001 1.626-1.123 3.038-2.707 3.407-.005.001-.009.002-.013.003-1.937.432-3.457 1.956-3.91 3.885-.365 1.566-1.757 2.676-3.363 2.683-2.338.03-6.46.03-8.796.03h-.001c-1.627-.001-3.038-1.122-3.407-2.707-.001-.004-.002-.008-.003-.013-.432-1.937-1.957-3.456-3.885-3.91-1.572-.365-2.684-1.766-2.684-3.373-.022-5.168-.028-22.949-.029-31.162h-6.182v44.921c0 1.657 1.343 3 3 3h35.161c1.657 0 3-1.343 3-3 0-10.494 0-44.921 0-44.921zm-3 0h-22.798c.001 8.208.007 25.983.029 31.149v.007c0 .218.151.408.364.457.001.001.002.001.003.001 3.045.716 5.442 3.115 6.13 6.176.057.22.255.375.484.375 2.327 0 6.432 0 8.759-.03h.019c.219 0 .408-.15.458-.363 0-.001 0-.002.001-.003.716-3.045 3.115-5.442 6.176-6.13.22-.057.375-.256.375-.484zm-11.399 5.863c-4.269 0-7.735 3.466-7.735 7.735s3.466 7.735 7.735 7.735 7.735-3.466 7.735-7.735-3.466-7.735-7.735-7.735zm0 3c2.613 0 4.735 2.122 4.735 4.735s-2.122 4.735-4.735 4.735c-2.614 0-4.735-2.122-4.735-4.735s2.121-4.735 4.735-4.735z"/><path d="m80.918 10.424h-1.51c-1.323 0-2.591.526-3.527 1.461-.935.935-1.46 2.204-1.46 3.526v6.381c0 1.323.525 2.591 1.46 3.526.936.936 2.204 1.461 3.527 1.461h6.02c.526 0 1.032.209 1.404.582.373.372.582.878.582 1.405v6.381c0 .527-.209 1.032-.582 1.404-.372.373-.878.582-1.404.582h-9.507c-.828 0-1.5.672-1.5 1.5s.672 1.5 1.5 1.5h4.997v7.675c0 .828.672 1.5 1.5 1.5.827 0 1.5-.672 1.5-1.5v-7.675h1.51c1.322 0 2.59-.525 3.526-1.46.935-.935 1.46-2.204 1.46-3.526v-6.381c0-1.323-.525-2.591-1.46-3.527-.936-.935-2.204-1.46-3.527-1.46h-6.019c-.527 0-1.033-.209-1.405-.582-.373-.373-.582-.878-.582-1.405v-6.381c0-.527.209-1.032.582-1.405.372-.372.878-.582 1.405-.582h9.506c.828 0 1.5-.672 1.5-1.5 0-.827-.672-1.5-1.5-1.5h-4.996v-7.674c0-.828-.673-1.5-1.5-1.5-.828 0-1.5.672-1.5 1.5z"/></g></svg>