<svg id="Layer_1" height="512" viewBox="0 0 100 100" width="512" xmlns="http://www.w3.org/2000/svg"><g><path d="m66.13 60.285c-1.955-.855-7.37-2.309-8.021-4.771-1.021-3.894 2.858-6.86 4.584-9.926 1.816-3.232 3.332-7.606 3.627-11.262 1.063-13.122-6.983-20.8-18.519-19.471-8.386.965-13.395 7.217-13.937 15.269-.55 8.205 2.494 14.264 5.727 18.708 1.415 1.943 2.9 3.193 2.674 5.535-.266 2.77-3.227 3.541-5.345 4.391-2.511 1.01-5.213 2.54-6.49 3.247-4.146 2.29-8.672 5.021-10.084 8.681 6.548 9.355 17.394 15.49 29.654 15.49 12.3 0 23.18-6.174 29.718-15.582-1.96-5-8.724-8.172-13.588-10.309z"/><path d="m50 5c-24.812 0-45 20.187-45 45s20.188 45 45 45c24.814 0 45-20.188 45-45 0-24.813-20.186-45-45-45zm0 84.706c-21.928 0-39.706-17.776-39.706-39.706s17.778-39.707 39.706-39.707c21.93 0 39.706 17.776 39.706 39.707 0 21.93-17.776 39.706-39.706 39.706z"/></g></svg>