<?xml version="1.0" encoding="iso-8859-1"?>
<!-- Generator: Adobe Illustrator 19.0.0, SVG Export Plug-In . SVG Version: 6.00 Build 0)  -->
<svg version="1.1" id="Capa_1" xmlns="http://www.w3.org/2000/svg" xmlns:xlink="http://www.w3.org/1999/xlink" x="0px" y="0px"
	 viewBox="0 0 512 512" style="enable-background:new 0 0 512 512;" xml:space="preserve">
<g>
	<g>
		<path d="M437.02,74.981C388.667,26.629,324.38,0,256,0S123.333,26.629,74.98,74.981C26.628,123.333,0,187.62,0,256
			c0,68.381,26.628,132.668,74.98,181.02C123.332,485.371,187.62,512,256,512s132.667-26.629,181.02-74.98
			C485.371,388.668,512,324.381,512,256C512,187.62,485.372,123.333,437.02,74.981z M271,86.909l60.47-43.935
			c45.225,16.071,83.861,46.153,110.667,85.005l-21.889,67.366l-77.143,25.066L271,168.027V86.909z M180.529,42.975L241,86.909
			v81.12l-72.095,52.377L91.757,195.34l-21.891-67.365C96.671,89.125,135.306,59.045,180.529,42.975z M81.39,399.324
			c-30.921-37.602-49.959-85.326-51.311-137.377l52.408-38.076l77.143,25.065l27.541,84.765l-47.678,65.623H81.39z M331.302,469.084
			C307.736,477.438,282.393,482,256,482c-26.392,0-51.735-4.562-75.3-12.915l-16.938-52.128l47.677-65.621l89.123-0.004
			l47.679,65.623L331.302,469.084z M430.612,399.322H372.51l-47.678-65.623l27.541-84.756l77.145-25.066l52.402,38.074
			C480.569,313.999,461.531,361.721,430.612,399.322z"/>
	</g>
</g>
<g>
</g>
<g>
</g>
<g>
</g>
<g>
</g>
<g>
</g>
<g>
</g>
<g>
</g>
<g>
</g>
<g>
</g>
<g>
</g>
<g>
</g>
<g>
</g>
<g>
</g>
<g>
</g>
<g>
</g>
</svg>
