<svg id="Layer_1" enable-background="new 0 0 512 512" height="512" viewBox="0 0 512 512" width="512" xmlns="http://www.w3.org/2000/svg"><g><path d="m366.802 103.2969c-42.0083-6.8257-75.2605-40.0654-82.0906-82.0596h-57.4541c-6.8274 41.9924-40.0664 75.2314-82.0588 82.0588v252.7664h221.6035zm-18.6445 168.9902h-20.4236c-6.1252 19.1455-22.9087 32.9326-42.6145 32.9326v-32c7.1025 0 13.1035-7.7539 13.1035-16.9326 0-9.1963-6.001-16.9648-13.1035-16.9648-7.4551 0-9.3711.7422-13.4756 20.252-1.918 9.1143-4.0908 19.4443-9.835 28.1582-5.2598 7.9775-15.5879 17.4873-34.9277 17.4873-19.7197 0-36.5154-13.7871-42.645-32.9326h-20.3931v-32h20.3899c6.127-19.1636 22.9248-32.9648 42.6482-32.9648v32c-7.1201 0-13.1357 7.7686-13.1357 16.9648 0 9.1787 6.0156 16.9326 13.1357 16.9326 7.4355 0 9.3467-.7422 13.4482-20.2344 1.9189-9.1182 4.0938-19.4531 9.8418-28.1719 5.2627-7.9795 15.5967-17.4912 34.9482-17.4912 19.7095 0 36.4954 13.8013 42.6177 32.9648h20.4204v32z"/><path d="m421.9128 253.3311h-22.5805-.5303v102.7314h32.239v32h-350.1096v-32h32.2671v-102.7314h-.5303-15.0112-97.657v237.4316h512v-237.4316z"/><path d="m194.616 21.2373h-49.4175v49.4175c24.3061-5.9465 43.4709-25.1113 49.4175-49.4175z"/><path d="m366.802 70.6565v-49.4192h-49.4487c5.9499 24.3086 25.1274 43.4749 49.4487 49.4192z"/><path d="m507.5547 149.7881-22.6192-22.6348-13.5468 13.5376v-105.9526h-32v105.9336l-13.5147-13.5147-22.6269 22.627 52.1377 52.1377z"/><path d="m108.7412 149.7842-22.6269-22.627-13.5147 13.5147v-105.9336h-32v105.9336l-13.5146-13.5147-22.6275 22.627 52.1421 52.1416z"/></g></svg>