<svg id="Capa_1" enable-background="new 0 0 512 512" height="512" viewBox="0 0 512 512" width="512" xmlns="http://www.w3.org/2000/svg"><g><path d="m207.993 208.206-100.009-100.009c-26.218 30.559-43.164 69.294-46.413 111.803h141.525c1.179-4.151 2.829-8.103 4.897-11.794z"/><path d="m207.993 261.794c-2.068-3.691-3.718-7.643-4.897-11.794h-141.525c3.249 42.51 20.195 81.244 46.412 111.803z"/><path d="m129.197 383.017c30.559 26.218 69.294 43.163 111.803 46.412v-141.525c-4.151-1.179-8.103-2.829-11.794-4.897z"/><path d="m308.904 220h141.525c-3.249-42.51-20.195-81.244-46.412-111.803l-100.01 100.009c2.068 3.691 3.718 7.643 4.897 11.794z"/><path d="m304.007 261.794 100.009 100.009c26.218-30.559 43.164-69.293 46.413-111.803h-141.525c-1.179 4.151-2.829 8.103-4.897 11.794z"/><circle cx="256" cy="235" r="25"/><path d="m282.794 283.007c-3.691 2.068-7.643 3.718-11.794 4.897v141.525c42.509-3.249 81.244-20.195 111.803-46.412z"/><path d="m241 182.096v-70.886c-11.534-4.081-21.147-12.773-26.227-24.385l-16.647-38.051c-25.635 7.986-49.018 21.127-68.929 38.209l100.009 100.009c3.691-2.067 7.643-3.717 11.794-4.896z"/><path d="m271 111.21v70.886c4.151 1.179 8.103 2.829 11.794 4.897l100.01-100.009c-19.911-17.082-43.294-30.223-68.929-38.209l-16.647 38.051c-5.081 11.611-14.694 20.303-26.228 24.384z"/><path d="m242.258 74.801c5.243 11.984 22.242 11.984 27.485 0l23.533-53.789c4.335-9.91-2.926-21.012-13.743-21.012h-47.065c-10.817 0-18.078 11.102-13.742 21.012z"/><path d="m416 482h-40.648l-21.697-44.262c-9.04 4.376-18.355 8.13-27.901 11.24l16.188 33.022h-171.884l16.187-33.021c-9.546-3.11-18.861-6.865-27.901-11.24l-21.696 44.261h-40.648c-8.284 0-15 6.716-15 15s6.716 15 15 15h320c8.284 0 15-6.716 15-15s-6.716-15-15-15z"/></g></svg>