<svg id="interface" enable-background="new 0 0 512 512" height="512" viewBox="0 0 512 512" width="512" xmlns="http://www.w3.org/2000/svg"><path id="_x39_" d="m292 456.249c-1.617 0-3.219-.578-4.473-1.695l-115.086-101.805h-60.441c-28.539 0-51.75-23.211-51.75-51.75v-90c0-28.539 23.211-51.75 51.75-51.75h60.441l115.087-101.804c1.984-1.758 4.824-2.188 7.246-1.102 2.422 1.09 3.977 3.5 3.977 6.156v387c0 2.656-1.555 5.063-3.977 6.152-.891.403-1.832.598-2.774.598zm135.418-200.249 16.652-14.566c9.352-8.184 10.293-22.402 2.113-31.754-8.188-9.352-22.391-10.297-31.754-2.113l-21.18 18.535-21.18-18.535c-9.359-8.184-23.57-7.238-31.754 2.113-8.18 9.352-7.238 23.57 2.113 31.754l16.654 14.566-16.652 14.566c-9.352 8.184-10.293 22.402-2.113 31.754 4.449 5.078 10.68 7.68 16.941 7.68 5.262 0 10.539-1.832 14.813-5.566l21.18-18.535 21.18 18.535c4.273 3.734 9.551 5.566 14.813 5.566 6.262 0 12.492-2.602 16.941-7.68 8.18-9.352 7.238-23.57-2.113-31.754z" fill="rgb(0,0,0)"/></svg>