<svg id="svg45829" height="512" viewBox="0 0 16.933333 16.933334" width="512" xmlns="http://www.w3.org/2000/svg" xmlns:svg="http://www.w3.org/2000/svg"><g id="layer1" transform="translate(0 -280.067)"><path id="path33289" d="m8.4666641 280.59582c-1.1676195.00002-2.2781499.25138-3.2773197.70486-.136779.0621-.1945138.22543-.1271244.35967l.4728395.94723c.0635.12722.2161567.18153.3457152.12299.7897998-.35263 1.6639593-.54674 2.5858894-.54674 3.5101389 0 6.3494839 2.83936 6.3494839 6.34949 0 1.32045-.406432 2.54068-1.095542 3.55689l-.834057-.83458c-.057-.0571-.136892-.0851-.21704-.076-.133702.0155-.234455.12895-.234095.26355v2.91041c-.00053.14612.11743.26504.263548.26562h2.909901c.237731.002.357037-.28646.187584-.4532l-.937926-.93793c.967642-1.31546 1.545643-2.9378 1.545643-4.6948 0-4.38063-3.556881-7.93751-7.9374999-7.9375zm-7.1447846 1.85156c-.2352887.00009-.35343574.28424-.1875843.45114l.9384427.93844c-.9677982 1.31561-1.54357384 2.93905-1.54357384 4.69636 0 4.38063 3.55688104 7.93749 7.93750004 7.9375 1.1676195 0 2.2781489-.25345 3.2773189-.70694.13657-.0623.194048-.22557.126606-.35967l-.474387-.94722c-.0634-.12608-.21463-.1802-.343649-.12299-.789792.35264-1.6639695.5488-2.5858889.5488-3.5101398 0-6.3494841-2.83934-6.3494841-6.34948 0-1.31999.4040399-2.54168 1.0924407-3.55793l.8371576.83509c.1669018.16587.4510458.0477.4511357-.18758v-2.9099c.0005292-.14693-.1186868-.26618-.2656178-.26562zm7.1442686 1.85209c-2.3348712 0-4.2323015 1.89949-4.2323015 4.23436s1.8974303 4.2323 4.2323015 4.2323c2.3348679 0 4.2343649-1.89743 4.2343649-4.2323s-1.899497-4.23436-4.2343649-4.23436zm-.00106 1.05678c.1323314 0 .2645833.0881.2645833.26458v.56069c.6022314.12299 1.0588493.65825 1.0588493 1.29553.00799.36069-.537165.36069-.5291667 0 0-.44151-.3517212-.79272-.7932314-.79272s-.7927181.35121-.7927181.79272.3512079.79323.7927181.79323c.7274904 0 1.3223981.59646 1.3223981 1.32395 0 .63729-.4566179 1.17306-1.0588493 1.29605v.55552c0 .35286-.5291666.35286-.5291666 0v-.55604c-.6012101-.12379-1.056267-.65897-1.056267-1.29553.00765-.34503.5211683-.34503.5291667 0 0 .44151.3512079.79324.7927181.79324s.7932314-.35173.7932314-.79324-.3517212-.79478-.7932314-.79478c-.727501 0-1.3218848-.59491-1.3218848-1.3224 0-.63656.4550569-1.17122 1.056267-1.29501v-.56121c0-.17643.1322625-.26458.2645833-.26458z" font-variant-ligatures="normal" font-variant-position="normal" font-variant-caps="normal" font-variant-numeric="normal" font-variant-alternates="normal" font-feature-settings="normal" text-indent="0" text-align="start" text-decoration-line="none" text-decoration-style="solid" text-decoration-color="rgb(0,0,0)" text-transform="none" text-orientation="mixed" white-space="normal" shape-padding="0" isolation="auto" mix-blend-mode="normal" solid-color="rgb(0,0,0)" solid-opacity="1" vector-effect="none"/></g></svg>