<svg id="Layer_1" enable-background="new 0 0 24 24" height="512" viewBox="0 0 24 24" width="512" xmlns="http://www.w3.org/2000/svg"><g fill="rgb(0,0,0)"><path d="m6 3h12c2.2 0 4 1.8 4 4 0 1.7-1 3.1-2.5 3.7v-3.7c0-.4-.2-.8-.4-1.1s-.7-.4-1.1-.4h-12c-.4 0-.8.2-1.1.4s-.4.7-.4 1.1v3.7c-1.5-.6-2.5-2-2.5-3.7 0-2.2 1.8-4 4-4z"/><path clip-rule="evenodd" d="m18 7v12c0 1.1-.9 2-2 2h-8c-1.1 0-2-.9-2-2v-12zm-7.5 7.5.7.7v-4.2c0-.4.3-.8.8-.8s.8.3.8.8v4.2l.7-.7c.3-.3.8-.3 1.1 0s.3.8 0 1.1l-1.3 1.3c-.7.7-1.8.7-2.5 0l-1.3-1.3c-.3-.3-.3-.8 0-1.1s.7-.3 1 0z" fill-rule="evenodd"/></g></svg>